<svg width="28" height="28" viewBox="0 0 28 28" fill="none" xmlns="http://www.w3.org/2000/svg">
<path d="M19.0921 16.5643C19.7031 16.1606 20.2803 15.779 20.6314 15.3959C20.7989 15.2126 20.9675 15.0202 21.1369 14.8273C21.964 13.8842 22.8735 12.8469 23.7879 12.8236C23.9152 12.0956 24.0804 11.0981 24.2388 9.9915C24.2978 9.57839 24.3353 9.18856 24.3715 8.81157C24.4774 7.7079 24.5611 6.8362 25.1208 6.37199C25.4285 6.11701 25.8335 6.02711 26.3585 6.09694C26.5212 6.11861 26.6511 6.24864 26.6785 6.41747C27.0832 8.90789 27.1092 13.0117 26.7373 15.7606C26.5084 17.4542 25.2078 18.5761 23.9501 19.6607C22.7511 20.6949 21.6186 21.672 21.6186 23.0055L21.6186 25.6859C21.6186 25.9005 21.4518 26.0741 21.246 26.0741L16.3726 26.0741C16.1668 26.0741 16 25.9005 16 25.6859L16 20.4851C16 18.6076 17.7145 17.4745 19.0921 16.5643ZM16.7452 25.2974L20.8731 25.2974L20.8731 23.0057C20.8731 21.3062 22.1958 20.1656 23.4751 19.0625C24.6235 18.0723 25.8109 17.0481 25.9992 15.6525C26.3475 13.0799 26.339 9.29532 25.99 6.85172C25.815 6.8576 25.6813 6.90015 25.5845 6.98014C25.2709 7.24021 25.1975 8.00435 25.1126 8.88917C25.0774 9.25706 25.0374 9.67471 24.9756 10.106C24.8105 11.2597 24.6378 12.2952 24.508 13.0352C24.5739 13.0778 24.6404 13.1273 24.7061 13.184C24.8488 13.3063 25.0197 13.5356 25.0253 13.9329C25.0397 14.9509 23.918 16.5306 22.8553 17.5002C22.6908 17.6503 22.5155 17.7959 22.3333 17.9473C21.6789 18.4902 20.9373 19.1061 20.3496 20.3021C20.2559 20.4929 20.0314 20.5683 19.8481 20.4706C19.6652 20.3727 19.5925 20.1386 19.6865 19.9476C20.3475 18.6028 21.1913 17.9021 21.8693 17.3397C22.042 17.1963 22.2086 17.0582 22.3649 16.9156C23.3942 15.9765 24.2896 14.5879 24.2804 13.9447C24.2788 13.8232 24.2437 13.7932 24.2324 13.7833C23.6106 13.2495 22.8209 14.0578 21.6869 15.3515C21.5139 15.5487 21.3415 15.7451 21.1703 15.9321C20.7563 16.3842 20.1417 16.7904 19.4912 17.2201C18.2042 18.0707 16.7455 19.0344 16.7455 20.4848L16.7455 25.2974L16.7452 25.2974Z" fill="#00AB84"/>
<path d="M8.90789 16.5643C8.29686 16.1606 7.7197 15.779 7.36864 15.3959C7.20106 15.2126 7.03245 15.0202 6.86308 14.8273C6.03597 13.8842 5.12648 12.8469 4.21211 12.8236C4.08483 12.0956 3.91956 11.0981 3.76122 9.9915C3.70219 9.57839 3.66473 9.18856 3.62854 8.81157C3.52255 7.7079 3.43889 6.8362 2.87919 6.37199C2.57149 6.11701 2.16653 6.02711 1.64147 6.09694C1.47877 6.11861 1.34892 6.24864 1.32146 6.41747C0.916756 8.90789 0.890837 13.0117 1.26269 15.7606C1.4916 17.4542 2.79219 18.5761 4.04993 19.6608C5.24889 20.6949 6.38139 21.672 6.38139 23.0055L6.38139 25.6859C6.38139 25.9005 6.5482 26.0741 6.75401 26.0741L11.6274 26.0741C11.8332 26.0741 12 25.9005 12 25.6859L12 20.4851C12 18.6076 10.2855 17.4745 8.90789 16.5643ZM11.2548 25.2974L7.12689 25.2974L7.12689 23.0058C7.12689 21.3062 5.80423 20.1656 4.52494 19.0625C3.37653 18.0723 2.18912 17.0481 2.00075 15.6525C1.65251 13.0799 1.66098 9.29532 2.00999 6.85172C2.18501 6.8576 2.31871 6.90015 2.41546 6.98014C2.72906 7.24021 2.80246 8.00435 2.8874 8.88917C2.92256 9.25706 2.96259 9.67471 3.02444 10.106C3.18945 11.2597 3.36216 12.2952 3.49202 13.0352C3.42606 13.0778 3.3596 13.1273 3.2939 13.184C3.15121 13.3063 2.9803 13.5356 2.97466 13.9329C2.96028 14.9509 4.082 16.5306 5.1447 17.5002C5.3092 17.6503 5.48448 17.7959 5.66668 17.9473C6.32108 18.4902 7.06274 19.1061 7.65041 20.3021C7.74408 20.4929 7.96863 20.5683 8.15187 20.4706C8.33484 20.3727 8.40747 20.1386 8.31354 19.9476C7.65247 18.6028 6.80867 17.9021 6.13066 17.3397C5.95795 17.1963 5.7914 17.0582 5.63512 16.9156C4.60578 15.9765 3.71041 14.5879 3.71965 13.9447C3.72119 13.8232 3.75634 13.7932 3.76764 13.7833C4.38944 13.2495 5.17909 14.0578 6.31313 15.3515C6.48609 15.5487 6.65855 15.7451 6.82972 15.9321C7.24366 16.3842 7.85828 16.7904 8.50883 17.2201C9.79582 18.0707 11.2545 19.0344 11.2545 20.4848L11.2545 25.2974L11.2548 25.2974Z" fill="#00AB84"/>
<path d="M10.7878 10.447H17.5854C17.6266 10.4487 17.667 10.4589 17.7042 10.4768C17.7414 10.4947 17.7745 10.52 17.8015 10.5511C17.8286 10.5822 17.849 10.6185 17.8616 10.6578C17.8742 10.6971 17.8786 10.7386 17.8747 10.7796L17.1949 15.7983C17.1877 15.866 17.1556 15.9287 17.1049 15.9741C17.0541 16.0196 16.9882 16.0445 16.9201 16.0441H11.3229C11.251 16.0445 11.1814 16.018 11.128 15.9699C11.0745 15.9218 11.0408 15.8554 11.0337 15.7838L10.4985 10.7651C10.4945 10.7248 10.4989 10.6841 10.5116 10.6456C10.5244 10.607 10.545 10.5716 10.5723 10.5416C10.5996 10.5116 10.6329 10.4877 10.67 10.4714C10.7071 10.4551 10.7472 10.4468 10.7878 10.447V10.447Z" stroke="#00AB84" stroke-width="0.75" stroke-miterlimit="10" stroke-linecap="round"/>
<path d="M8.01304 2.27552C8.66388 2.05858 13.509 0.727978 14.1165 6.73014C13.4078 6.94709 8.21553 8.32108 7.94073 2.39123C7.93897 2.36677 7.94502 2.34238 7.95802 2.32158C7.97102 2.30079 7.99028 2.28466 8.01304 2.27552V2.27552Z" stroke="#00AB84" stroke-width="0.75" stroke-miterlimit="10" stroke-linecap="round"/>
<path d="M7.94043 2.37683L14.1161 6.7302V10.4472" stroke="#00AB84" stroke-width="0.75" stroke-miterlimit="10" stroke-linecap="round"/>
<path d="M21.0868 4.12672C20.9422 4.80648 19.7417 9.78177 14.2458 7.30859C14.2352 7.29384 14.2295 7.27614 14.2295 7.25797C14.2295 7.23981 14.2352 7.2221 14.2458 7.20735C14.4049 6.4842 15.7933 1.29196 21.0868 4.01102C21.0957 4.029 21.1004 4.0488 21.1004 4.06887C21.1004 4.08894 21.0957 4.10874 21.0868 4.12672V4.12672Z" stroke="#00AB84" stroke-width="0.75" stroke-miterlimit="10" stroke-linecap="round"/>
<path d="M21.0314 3.9967L14.1904 7.19304" stroke="#00AB84" stroke-width="0.75" stroke-miterlimit="10" stroke-linecap="round"/>
</svg>
